<svg width="60" height="60" viewBox="0 0 60 60" fill="none" xmlns="http://www.w3.org/2000/svg">
<mask id="mask0" mask-type="alpha" maskUnits="userSpaceOnUse" x="0" y="0" width="60" height="60">
<path d="M60 0H0L60 60V0Z" fill="black"/>
</mask>
<g mask="url(#mask0)">
<mask id="path-2-inside-1" fill="white">
<path fill-rule="evenodd" clip-rule="evenodd" d="M49.12 34.9167H36V37.75H42.64C43.2129 37.75 43.7623 37.9739 44.1673 38.3724C44.5724 38.7709 44.8 39.3114 44.8 39.875C44.8 40.4386 44.5724 40.9791 44.1673 41.3776C43.7623 41.7761 43.2129 42 42.64 42H25.36C24.7871 42 24.2377 41.7761 23.8326 41.3776C23.4276 40.9791 23.2 40.4386 23.2 39.875C23.2 39.3114 23.4276 38.7709 23.8326 38.3724C24.2377 37.9739 24.7871 37.75 25.36 37.75H32V34.9167H18.88C18.1162 34.9167 17.3836 34.6182 16.8435 34.0868C16.3034 33.5554 16 32.8348 16 32.0833V10.8333C16 10.0819 16.3034 9.36122 16.8435 8.82986C17.3836 8.29851 18.1162 8 18.88 8H49.12C49.8838 8 50.6164 8.29851 51.1565 8.82986C51.6966 9.36122 52 10.0819 52 10.8333V32.0833C52 32.8348 51.6966 33.5554 51.1565 34.0868C50.6164 34.6182 49.8838 34.9167 49.12 34.9167ZM47.68 12.25H20.32V30.6667H47.68V12.25ZM44.0802 15.0833H23.9202V27.8333H44.0802V15.0833Z"/>
</mask>
<path fill-rule="evenodd" clip-rule="evenodd" d="M49.12 34.9167H36V37.75H42.64C43.2129 37.75 43.7623 37.9739 44.1673 38.3724C44.5724 38.7709 44.8 39.3114 44.8 39.875C44.8 40.4386 44.5724 40.9791 44.1673 41.3776C43.7623 41.7761 43.2129 42 42.64 42H25.36C24.7871 42 24.2377 41.7761 23.8326 41.3776C23.4276 40.9791 23.2 40.4386 23.2 39.875C23.2 39.3114 23.4276 38.7709 23.8326 38.3724C24.2377 37.9739 24.7871 37.75 25.36 37.75H32V34.9167H18.88C18.1162 34.9167 17.3836 34.6182 16.8435 34.0868C16.3034 33.5554 16 32.8348 16 32.0833V10.8333C16 10.0819 16.3034 9.36122 16.8435 8.82986C17.3836 8.29851 18.1162 8 18.88 8H49.12C49.8838 8 50.6164 8.29851 51.1565 8.82986C51.6966 9.36122 52 10.0819 52 10.8333V32.0833C52 32.8348 51.6966 33.5554 51.1565 34.0868C50.6164 34.6182 49.8838 34.9167 49.12 34.9167ZM47.68 12.25H20.32V30.6667H47.68V12.25ZM44.0802 15.0833H23.9202V27.8333H44.0802V15.0833Z" fill="#2483FF"/>
<path d="M36 34.9167V34.1167H35.2V34.9167H36ZM36 37.75H35.2V38.55H36V37.75ZM42.64 37.75L42.64 36.95H42.64V37.75ZM44.1673 38.3724L44.7284 37.8021L44.7284 37.8021L44.1673 38.3724ZM23.8326 41.3776L24.3937 40.8073V40.8073L23.8326 41.3776ZM23.8326 38.3724L23.2716 37.8021L23.2716 37.8021L23.8326 38.3724ZM32 37.75V38.55H32.8V37.75H32ZM32 34.9167H32.8V34.1167H32V34.9167ZM16.8435 8.82986L17.4046 9.40015L16.8435 8.82986ZM51.1565 8.82986L50.5954 9.40015L50.5954 9.40015L51.1565 8.82986ZM51.1565 34.0868L50.5954 33.5165L50.5954 33.5165L51.1565 34.0868ZM20.32 12.25V11.45H19.52V12.25H20.32ZM47.68 12.25H48.48V11.45H47.68V12.25ZM20.32 30.6667H19.52V31.4667H20.32V30.6667ZM47.68 30.6667V31.4667H48.48V30.6667H47.68ZM23.9202 15.0833V14.2833H23.1202V15.0833H23.9202ZM44.0802 15.0833H44.8802V14.2833H44.0802V15.0833ZM23.9202 27.8333H23.1202V28.6333H23.9202V27.8333ZM44.0802 27.8333V28.6333H44.8802V27.8333H44.0802ZM36 35.7167H49.12V34.1167H36V35.7167ZM36.8 37.75V34.9167H35.2V37.75H36.8ZM42.64 36.95H36V38.55H42.64V36.95ZM44.7284 37.8021C44.1723 37.255 43.4209 36.95 42.64 36.95L42.64 38.55C43.0049 38.55 43.3522 38.6927 43.6063 38.9427L44.7284 37.8021ZM45.6 39.875C45.6 39.095 45.2849 38.3496 44.7284 37.8021L43.6063 38.9427C43.8599 39.1922 44 39.5278 44 39.875H45.6ZM44.7284 41.9479C45.2849 41.4004 45.6 40.655 45.6 39.875H44C44 40.2222 43.8599 40.5578 43.6063 40.8073L44.7284 41.9479ZM42.64 42.8C43.4209 42.8 44.1723 42.4949 44.7284 41.9479L43.6063 40.8073C43.3522 41.0573 43.0049 41.2 42.64 41.2V42.8ZM25.36 42.8H42.64V41.2H25.36V42.8ZM23.2716 41.9479C23.8277 42.4949 24.5791 42.8 25.36 42.8V41.2C24.9951 41.2 24.6478 41.0573 24.3937 40.8073L23.2716 41.9479ZM22.4 39.875C22.4 40.655 22.7151 41.4004 23.2716 41.9479L24.3937 40.8073C24.1401 40.5578 24 40.2222 24 39.875H22.4ZM23.2716 37.8021C22.7151 38.3496 22.4 39.095 22.4 39.875H24C24 39.5278 24.1401 39.1922 24.3937 38.9427L23.2716 37.8021ZM25.36 36.95C24.5791 36.95 23.8277 37.255 23.2716 37.8021L24.3937 38.9427C24.6478 38.6927 24.9951 38.55 25.36 38.55V36.95ZM32 36.95H25.36V38.55H32V36.95ZM31.2 34.9167V37.75H32.8V34.9167H31.2ZM18.88 35.7167H32V34.1167H18.88V35.7167ZM16.2825 34.6571C16.9736 35.337 17.9082 35.7167 18.88 35.7167V34.1167C18.3242 34.1167 17.7937 33.8993 17.4046 33.5165L16.2825 34.6571ZM15.2 32.0833C15.2 33.0512 15.5909 33.9768 16.2825 34.6571L17.4046 33.5165C17.0159 33.1341 16.8 32.6183 16.8 32.0833H15.2ZM15.2 10.8333V32.0833H16.8V10.8333H15.2ZM16.2825 8.25958C15.5909 8.93992 15.2 9.86546 15.2 10.8333H16.8C16.8 10.2983 17.0159 9.78252 17.4046 9.40015L16.2825 8.25958ZM18.88 7.2C17.9082 7.2 16.9736 7.57968 16.2825 8.25958L17.4046 9.40015C17.7937 9.01735 18.3242 8.8 18.88 8.8V7.2ZM49.12 7.2H18.88V8.8H49.12V7.2ZM51.7175 8.25958C51.0264 7.57968 50.0918 7.2 49.12 7.2V8.8C49.6758 8.8 50.2063 9.01735 50.5954 9.40015L51.7175 8.25958ZM52.8 10.8333C52.8 9.86546 52.4091 8.93992 51.7175 8.25958L50.5954 9.40015C50.9841 9.78252 51.2 10.2983 51.2 10.8333H52.8ZM52.8 32.0833V10.8333H51.2V32.0833H52.8ZM51.7175 34.6571C52.4091 33.9767 52.8 33.0512 52.8 32.0833H51.2C51.2 32.6184 50.9841 33.1341 50.5954 33.5165L51.7175 34.6571ZM49.12 35.7167C50.0918 35.7167 51.0264 35.337 51.7175 34.6571L50.5954 33.5165C50.2063 33.8993 49.6758 34.1167 49.12 34.1167V35.7167ZM20.32 13.05H47.68V11.45H20.32V13.05ZM21.12 30.6667V12.25H19.52V30.6667H21.12ZM47.68 29.8667H20.32V31.4667H47.68V29.8667ZM46.88 12.25V30.6667H48.48V12.25H46.88ZM23.9202 15.8833H44.0802V14.2833H23.9202V15.8833ZM24.7202 27.8333V15.0833H23.1202V27.8333H24.7202ZM44.0802 27.0333H23.9202V28.6333H44.0802V27.0333ZM43.2802 15.0833V27.8333H44.8802V15.0833H43.2802Z" fill="white" mask="url(#path-2-inside-1)"/>
</g>
</svg>
