<svg width="60" height="60" viewBox="0 0 60 60" fill="none" xmlns="http://www.w3.org/2000/svg">
<mask id="mask0" mask-type="alpha" maskUnits="userSpaceOnUse" x="0" y="0" width="60" height="60">
<path d="M60 0H0L60 60V0Z" fill="black"/>
</mask>
<g mask="url(#mask0)">
<path fill-rule="evenodd" clip-rule="evenodd" d="M33.1612 24.3201H18V8H33.1612V24.3201ZM30.1513 11.24H21.01V21.0801H30.1513V11.24ZM27.1413 34.1602H24.1314V37.4002H27.1413V34.1602ZM42.8579 40.7598H45.8679V43.9999H42.8579V40.7598ZM24.1293 14.5996H27.1393V17.8396H24.1293V14.5996ZM48.9902 40.76H52.0001V44H48.9902V40.76ZM48.9902 27.6799V34.16H45.8687V27.6799H36.8388V44H39.8488V30.9199H42.8588V37.4H52.0001V27.6799H48.9902ZM18 43.9999H33.1613V27.6797H18V43.9999ZM21.01 30.9197H30.1513V40.7598H21.01V30.9197ZM42.86 14.5996H45.8699V17.8396H42.86V14.5996ZM36.8388 8H52.0001V24.3201H36.8388V8ZM39.8488 21.0801H48.9902V11.24H39.8488V21.0801Z" fill="#2483FF"/>
</g>
</svg>
