<?xml version="1.0" encoding="UTF-8"?>
<svg width="169px" height="88px" viewBox="0 0 169 88" version="1.1" xmlns="http://www.w3.org/2000/svg" xmlns:xlink="http://www.w3.org/1999/xlink">
    <!-- Generator: Sketch 54.1 (76490) - http://sketchapp.com -->
    <title>home-otc</title>
    <desc>Created with Sketch.</desc>
    <defs>
        <rect id="path-1" x="0" y="0" width="169" height="90"></rect>
        <linearGradient x1="50%" y1="5.24425359%" x2="50%" y2="89.7814456%" id="linearGradient-3">
            <stop stop-color="#455E98" offset="0%"></stop>
            <stop stop-color="#334164" offset="100%"></stop>
        </linearGradient>
        <linearGradient x1="50%" y1="5.24425359%" x2="50%" y2="89.7814456%" id="linearGradient-4">
            <stop stop-color="#455E98" offset="0%"></stop>
            <stop stop-color="#334164" offset="100%"></stop>
        </linearGradient>
        <linearGradient x1="50%" y1="5.24425359%" x2="50%" y2="89.7814456%" id="linearGradient-5">
            <stop stop-color="#455E98" offset="0%"></stop>
            <stop stop-color="#334164" offset="100%"></stop>
        </linearGradient>
        <linearGradient x1="50%" y1="5.24425359%" x2="50%" y2="89.7814456%" id="linearGradient-6">
            <stop stop-color="#455E98" offset="0%"></stop>
            <stop stop-color="#334164" offset="100%"></stop>
        </linearGradient>
        <linearGradient x1="50%" y1="5.24425359%" x2="50%" y2="89.7814456%" id="linearGradient-7">
            <stop stop-color="#455E98" offset="0%"></stop>
            <stop stop-color="#334164" offset="100%"></stop>
        </linearGradient>
        <linearGradient x1="50%" y1="5.24425359%" x2="50%" y2="89.7814456%" id="linearGradient-8">
            <stop stop-color="#455E98" offset="0%"></stop>
            <stop stop-color="#334164" offset="100%"></stop>
        </linearGradient>
        <linearGradient x1="50%" y1="5.24425359%" x2="50%" y2="89.7814456%" id="linearGradient-9">
            <stop stop-color="#455E98" offset="0%"></stop>
            <stop stop-color="#334164" offset="100%"></stop>
        </linearGradient>
        <linearGradient x1="50%" y1="5.24425359%" x2="50%" y2="89.7814456%" id="linearGradient-10">
            <stop stop-color="#455E98" offset="0%"></stop>
            <stop stop-color="#334164" offset="100%"></stop>
        </linearGradient>
        <linearGradient x1="50%" y1="0%" x2="50%" y2="100%" id="linearGradient-11">
            <stop stop-color="#455E98" offset="0%"></stop>
            <stop stop-color="#334164" offset="100%"></stop>
        </linearGradient>
        <radialGradient cx="50%" cy="50%" fx="50%" fy="50%" r="104.628122%" gradientTransform="translate(0.500000,0.500000),scale(0.987330,1.000000),rotate(90.000000),translate(-0.500000,-0.500000)" id="radialGradient-12">
            <stop stop-color="#FDF1B1" offset="0%"></stop>
            <stop stop-color="#FFF2B0" offset="29.1669254%"></stop>
            <stop stop-color="#FDBC66" offset="100%"></stop>
        </radialGradient>
        <path d="M19.2143004,1.72431184 C21.2435343,8.69977061 22.2581512,13.6005435 22.2581512,16.4266304 C22.2581512,24.2593767 21.4901645,28.6063259 21.7637345,42.6027054 C21.6811102,43.0269744 21.0183562,43.3098473 19.7754724,43.4513242 C17.9111466,43.6635395 14.8387675,43.1344858 14.8387675,41.7087633 C14.8387675,40.2830409 12.9839215,19.6425964 12.9839215,17.8146776 C11.6918701,24.8616413 10.5120205,32.8263365 9.44437291,41.7087633 C9.9200015,43.5159082 9.30407235,44.4194806 7.59658547,44.4194806 L5.28096684,44.4194806 C5.28096684,44.4830579 5.28096684,43.5794855 5.28096684,41.7087633 C5.28096684,39.7905158 0.19672775,23.350183 0.529955981,12.7173913 C0.68418628,7.79614367 4.12578186,2.23657804 4.23964785,2.11956522 L7.59658547,0.167737793 L16.1847708,0.974203152 L19.2143004,1.72431184 Z" id="path-13"></path>
        <linearGradient x1="78.1147903%" y1="10.53917%" x2="18.1651757%" y2="100%" id="linearGradient-15">
            <stop stop-color="#EBBEB9" offset="0%"></stop>
            <stop stop-color="#ECBFB8" offset="100%"></stop>
        </linearGradient>
        <linearGradient x1="104.658123%" y1="63.658603%" x2="25.517054%" y2="10.5130614%" id="linearGradient-16">
            <stop stop-color="#285DC4" offset="0%"></stop>
            <stop stop-color="#357CE1" offset="100%"></stop>
        </linearGradient>
        <path d="M17.4396124,0.520983193 C20.9935513,1.93946826 23.4829908,3.17885067 24.9079311,4.23913043 C27.0453415,5.82955008 29.147579,9.48660261 29.677535,14.3070652 C29.324231,15.3668478 29.677535,17.3094437 30.7374469,20.1348528 C28.388938,21.0049472 26.79907,21.0049472 25.9678431,20.1348528 C25.1366162,19.2647584 24.4273998,17.6127085 23.840194,15.1787032 C23.8960616,18.6999629 23.9285187,21.0588735 23.9375654,22.2554348 C23.9511353,24.0502768 23.9239954,27.5277271 23.9375654,28.6141304 C23.9511353,29.7005337 20.4522402,29.1440217 16.6936134,29.1440217 C12.9349866,29.1440217 11.724603,28.6141304 9.00925168,28.6141304 L6.48568477,28.3491848 L6.0805819,25.4347826 L4.76960383,16.9565217 C5.96830823,16.7852222 6.14193914,16.6085918 5.29049659,16.4266304 C4.01333276,16.1536884 -0.353148431,17.5551408 0.48404458,14.4764522 C1.32123759,11.3977635 1.99361093,8.47826087 4.23964785,5.29891304 C6.48568477,2.11956522 8.4792957,1.58967391 14.2732119,0.319784889 L17.4396124,0.520983193 Z" id="path-17"></path>
        <linearGradient x1="69.52216%" y1="80.1873126%" x2="47.2891405%" y2="61.4457328%" id="linearGradient-19">
            <stop stop-color="#F7E0DD" offset="0%"></stop>
            <stop stop-color="#EBBEB9" offset="100%"></stop>
        </linearGradient>
        <linearGradient x1="50%" y1="7.42938586%" x2="50%" y2="100%" id="linearGradient-20">
            <stop stop-color="#0F4081" offset="0%"></stop>
            <stop stop-color="#0F2646" offset="100%"></stop>
        </linearGradient>
        <linearGradient x1="46.1481258%" y1="35.1074991%" x2="54.9848155%" y2="41.4808202%" id="linearGradient-21">
            <stop stop-color="#18529F" offset="0%"></stop>
            <stop stop-color="#11336C" offset="100%"></stop>
        </linearGradient>
        <linearGradient x1="65.2052221%" y1="32.6220245%" x2="50%" y2="73.9358362%" id="linearGradient-22">
            <stop stop-color="#F7E0DD" offset="0%"></stop>
            <stop stop-color="#EBBEB9" offset="100%"></stop>
        </linearGradient>
        <linearGradient x1="47.7929718%" y1="100%" x2="50%" y2="10.3996857%" id="linearGradient-23">
            <stop stop-color="#F7E1DD" offset="0%"></stop>
            <stop stop-color="#ECBFB8" offset="100%"></stop>
        </linearGradient>
        <linearGradient x1="36.6652277%" y1="0%" x2="61.5419667%" y2="100%" id="linearGradient-24">
            <stop stop-color="#F7E1DD" offset="0%"></stop>
            <stop stop-color="#ECBFB8" offset="100%"></stop>
        </linearGradient>
        <linearGradient x1="40.7093864%" y1="0%" x2="58.0415286%" y2="100%" id="linearGradient-25">
            <stop stop-color="#F7E1DD" offset="0%"></stop>
            <stop stop-color="#ECBFB8" offset="100%"></stop>
        </linearGradient>
        <linearGradient x1="96.7040151%" y1="100%" x2="96.7040151%" y2="0%" id="linearGradient-26">
            <stop stop-color="#ACBFFF" offset="0%"></stop>
            <stop stop-color="#9EB4FF" offset="100%"></stop>
        </linearGradient>
        <linearGradient x1="96.7040151%" y1="100%" x2="96.7040151%" y2="0%" id="linearGradient-27">
            <stop stop-color="#7D91D6" offset="0%"></stop>
            <stop stop-color="#7285C5" offset="100%"></stop>
        </linearGradient>
        <path d="M0.638474281,0.1843926 L0.638474281,1.65395948 L0.21653479,1.65395948 L0.21653479,2.81077268 L1.42473572,4.13874403 L3.34308168,4.13874403 L30.3767838,4.13874403 L31.6023053,2.98932148 C32.059318,2.09908015 31.9372097,1.65395948 31.2359803,1.65395948 L30.3767838,1.65395948 L30.3767838,0.1843926 L0.638474281,0.1843926 Z" id="path-28"></path>
        <linearGradient x1="96.7040151%" y1="100%" x2="96.7040151%" y2="0%" id="linearGradient-30">
            <stop stop-color="#ACBFFF" offset="0%"></stop>
            <stop stop-color="#9EB4FF" offset="100%"></stop>
        </linearGradient>
    </defs>
    <g id="✅-注册/登录/找" stroke="none" stroke-width="1" fill="none" fill-rule="evenodd">
        <g id="36_注册登录找-copy-3" transform="translate(-789.000000, -492.000000)">
            <g id="Group-8" transform="translate(472.000000, 480.000000)">
                <g id="home-otc" transform="translate(317.000000, 10.000000)">
                    <mask id="mask-2" fill="white">
                        <use xlink:href="#path-1"></use>
                    </mask>
                    <g id="Mask"></g>
                    <g id="Group-42" mask="url(#mask-2)">
                        <g transform="translate(0.000000, -4.565217)">
                            <g id="Group-23" transform="translate(0.000000, 49.565217)">
                                <path d="M2.62015504,6.52173913 L17.0310078,0 L17.0310078,45 L2.62015504,45 L2.62015504,6.52173913 Z M123.802326,19.5652174 L132.317829,19.5652174 L132.317829,45 L123.802326,45 L123.802326,19.5652174 Z M40.6124031,5.2173913 L49.127907,8.47826087 L49.127907,45 L40.6124031,45 L40.6124031,5.2173913 Z M62.2286822,26.0869565 L71.3992248,26.0869565 L71.3992248,45 L62.2286822,45 L62.2286822,26.0869565 Z" id="Combined-Shape" fill="url(#linearGradient-3)" fill-rule="nonzero" opacity="0.100000001"></path>
                                <polygon id="Rectangle-15-Copy" fill="url(#linearGradient-4)" fill-rule="nonzero" opacity="0.200000003" points="154.589147 5.2173913 169 5.2173913 169 44.3478261 154.589147 44.3478261"></polygon>
                                <rect id="Rectangle-34" fill="url(#linearGradient-5)" fill-rule="nonzero" opacity="0.100000001" x="0" y="18.9130435" width="34.0620155" height="25.4347826"></rect>
                                <rect id="Rectangle-34-Copy" fill="url(#linearGradient-6)" fill-rule="nonzero" opacity="0.100000001" x="34.0620155" y="33.9130435" width="24.2364341" height="10.4347826"></rect>
                                <rect id="Rectangle-34-Copy-4" fill="url(#linearGradient-7)" fill-rule="nonzero" opacity="0.200000003" x="87.120155" y="25.4347826" width="42.5775194" height="18.9130435"></rect>
                                <polygon id="Rectangle-34-Copy-2" fill="url(#linearGradient-8)" fill-rule="nonzero" opacity="0.300000012" points="66.8139535 31.3043478 81.2248062 24.1304348 81.2248062 44.3478261 66.8139535 44.3478261"></polygon>
                                <polygon id="Rectangle-34-Copy-3" fill="url(#linearGradient-9)" fill-rule="nonzero" opacity="0.200000003" points="93.6705426 11.2426165 101.167392 5.2173913 108.081395 5.2173913 108.081395 25.5904426 93.6705426 25.5904426"></polygon>
                                <polygon id="Rectangle-34-Copy-5" fill="url(#linearGradient-10)" fill-rule="nonzero" opacity="0.200000003" points="133.627907 17.1121817 141.124757 7.82608696 148.03876 10.4347826 148.03876 44.5034861 133.627907 44.5034861"></polygon>
                                <path d="M65.503876,45.3659188 C66.6721158,43.2252901 68.9808772,42.6290252 72.4301602,43.5771241 C74.5763456,43.9388142 77.4185421,43.2721488 80.9567498,41.5771277 C83.2222934,40.6444606 86.1348038,41.042759 89.694281,42.7720229 C91.9201139,44.0000346 94.4176989,44.2684017 97.187036,43.5771241 C101.341042,42.5402078 102.907746,42.7997326 107.530982,45.3659188 L65.503876,45.3659188 Z M123.802326,45.4359724 C124.578064,41.5031479 126.858099,39.6480034 130.642428,39.8705387 C134.426758,40.093074 138.102261,41.2408767 141.668936,43.3139466 C143.874534,44.1566853 146.278501,43.7934687 148.880838,42.2242967 C152.784345,39.8705387 158.109867,39.5814415 162.182688,42.754486 C164.16356,43.853893 166.806395,44.0403799 170.111191,43.3139466 C173.415987,42.5875133 175.665745,43.2948552 176.860465,45.4359724 L123.802326,45.4359724 Z M0,44.9091149 C1.09802151,42.3546737 3.66826009,41.5031933 7.71071571,42.3546737 C10.0350621,43.4174254 12.6562782,43.1236787 15.5743641,41.4734337 C17.8441323,40.3579662 20.2548419,40.6517129 22.8064931,42.3546737 C24.0407649,42.8233568 25.3879474,42.3336261 26.8480407,40.8854819 C29.0381805,38.7132654 31.3372268,38.7206057 34.3338249,41.4734337 C34.8937834,42.1197582 35.6921016,42.3344336 36.7287796,42.1174599 C38.2837967,41.7919993 39.5618991,43.6419479 40.495185,44.9091149 L0,44.9091149 Z" id="Combined-Shape" fill="url(#linearGradient-11)" fill-rule="nonzero"></path>
                            </g>
                            <g id="Group-18" transform="translate(89.085271, 26.739130) rotate(-330.000000) translate(-89.085271, -26.739130) translate(69.434109, 7.173913)">
                                <ellipse id="Oval-26" fill="url(#radialGradient-12)" fill-rule="nonzero" cx="19.6511628" cy="19.4021739" rx="19.6511628" ry="19.4021739"></ellipse>
                                <ellipse id="Oval-26-Copy" fill-rule="nonzero" cx="19.6511628" cy="19.4021739" rx="19.6511628" ry="19.4021739"></ellipse>
                                <path d="M18.375561,6.4673913 L15.9622603,6.4673913 L15.9622603,10.381865 L11.1356589,10.381865 L11.1356589,12.9347826 L12.8594451,12.9347826 C13.7213382,12.9347826 14.0660955,13.1049771 14.0660955,13.7857551 L14.0660955,24.6782037 C14.2384741,25.1887872 13.8937169,25.6993707 13.376581,25.8695652 L11.4804162,25.8695652 L11.4804162,28.4224828 L16.1346389,28.4224828 L16.1346389,32.3369565 L18.5479396,32.3369565 L18.5479396,28.4224828 L20.0993472,28.4224828 L20.0993472,32.3369565 L22.5126479,32.3369565 L22.5126479,28.4224828 L23.0297838,28.4224828 C28.0287638,28.4224828 29.5801714,26.0397597 29.5801714,22.6358696 C29.5801714,20.76373 28.2011424,19.0617849 26.3049776,18.5512014 C27.8563851,17.7002288 28.5458996,15.9982838 28.373521,14.2963387 C28.0287638,11.7434211 24.9259486,10.722254 22.5126479,10.5520595 L22.5126479,6.4673913 L20.0993472,6.4673913 L20.0993472,10.381865 L18.375561,10.381865 L18.375561,6.4673913 Z M24.75357,22.4656751 C24.75357,24.3378146 23.5469196,25.5291762 20.9612403,25.5291762 L18.375561,25.5291762 L18.375561,20.423341 L21.4783762,20.423341 C22.1678907,20.423341 24.9259486,20.5935355 24.75357,22.4656751 Z M19.9269686,13.1049771 C21.1336189,13.1049771 23.5469196,13.2751716 23.5469196,15.3175057 C23.5469196,16.5088673 22.6850265,17.7002288 21.4783762,17.8704233 L18.375561,17.8704233 L18.375561,12.9347826 L19.9269686,13.1049771 L19.9269686,13.1049771 Z" id="Shape" fill="#F5CB89" fill-rule="nonzero" transform="translate(20.357915, 19.402174) rotate(-30.000000) translate(-20.357915, -19.402174) "></path>
                                <path d="M18.375561,6.4673913 L15.9622603,6.4673913 L15.9622603,10.381865 L11.1356589,10.381865 L11.1356589,12.9347826 L12.8594451,12.9347826 C13.7213382,12.9347826 14.0660955,13.1049771 14.0660955,13.7857551 L14.0660955,24.6782037 C14.2384741,25.1887872 13.8937169,25.6993707 13.376581,25.8695652 L11.4804162,25.8695652 L11.4804162,28.4224828 L16.1346389,28.4224828 L16.1346389,32.3369565 L18.5479396,32.3369565 L18.5479396,28.4224828 L20.0993472,28.4224828 L20.0993472,32.3369565 L22.5126479,32.3369565 L22.5126479,28.4224828 L23.0297838,28.4224828 C28.0287638,28.4224828 29.5801714,26.0397597 29.5801714,22.6358696 C29.5801714,20.76373 28.2011424,19.0617849 26.3049776,18.5512014 C27.8563851,17.7002288 28.5458996,15.9982838 28.373521,14.2963387 C28.0287638,11.7434211 24.9259486,10.722254 22.5126479,10.5520595 L22.5126479,6.4673913 L20.0993472,6.4673913 L20.0993472,10.381865 L18.375561,10.381865 L18.375561,6.4673913 Z M24.75357,22.4656751 C24.75357,24.3378146 23.5469196,25.5291762 20.9612403,25.5291762 L18.375561,25.5291762 L18.375561,20.423341 L21.4783762,20.423341 C22.1678907,20.423341 24.9259486,20.5935355 24.75357,22.4656751 Z M19.9269686,13.1049771 C21.1336189,13.1049771 23.5469196,13.2751716 23.5469196,15.3175057 C23.5469196,16.5088673 22.6850265,17.7002288 21.4783762,17.8704233 L18.375561,17.8704233 L18.375561,12.9347826 L19.9269686,13.1049771 L19.9269686,13.1049771 Z" id="Shape-Copy" fill-rule="nonzero" transform="translate(20.357915, 19.402174) rotate(-30.000000) translate(-20.357915, -19.402174) "></path>
                            </g>
                            <g id="Group-14" transform="translate(36.682171, 28.043478)">
                                <g id="Path-2" transform="translate(3.709692, 40.271739)">
                                    <mask id="mask-14" fill="white">
                                        <use xlink:href="#path-13"></use>
                                    </mask>
                                    <use id="Mask" fill="#104094" xlink:href="#path-13"></use>
                                </g>
                                <path d="M29.147579,36.0326087 C34.0938348,32.5 37.3024412,28.8539579 38.7733982,25.0944823 C41.2756123,23.8009688 42.151676,22.2195429 41.4015893,20.3502046 L37.6057038,22.4243039 L36.9467727,23.2114598 C34.4570032,25.5508883 32.56388,27.2376648 31.2674029,28.2717894 C29.9709258,29.3059139 29.2643179,29.9268726 29.147579,30.1346655 L29.4302112,33.6508796 L29.147579,36.0326087 Z" id="Path-39" fill="url(#linearGradient-15)"></path>
                                <path d="M38.2839168,16.5285107 L40.773908,15.6904692 C41.0504176,15.597406 41.3500156,15.7461187 41.4430787,16.0226282 C41.4617135,16.077996 41.4710352,16.1360714 41.4706641,16.1944897 L41.4293274,22.7016757 C41.4264529,23.1541682 41.1357412,23.5545909 40.7063825,23.6974506 L38.2029929,24.5303992 C37.9261639,24.6225081 37.6270808,24.4727628 37.5349719,24.1959339 C37.5165909,24.1406904 37.5074686,24.0827884 37.5079742,24.0245694 L37.5644465,17.5206672 C37.5683559,17.070427 37.8571807,16.6721347 38.2839168,16.5285107 Z" id="Rectangle-36" fill="#1F3F59" transform="translate(39.489314, 20.110145) rotate(37.000000) translate(-39.489314, -20.110145) "></path>
                                <g id="Path-41" transform="translate(0.000000, 15.366848)">
                                    <mask id="mask-18" fill="white">
                                        <use xlink:href="#path-17"></use>
                                    </mask>
                                    <use id="Mask" fill="url(#linearGradient-16)" xlink:href="#path-17"></use>
                                    <path d="M12.2265286,0.388749262 C12.0762789,2.73782223 13.106071,4.01535358 15.315905,4.22134331 C17.525739,4.42733303 18.89396,2.96108123 19.4205678,-0.177412088 L13.0433635,-0.865812821 L12.2265286,-1.81697743 L12.2265286,0.388749262 Z" stroke="#88BAFF" stroke-width="0.5625" mask="url(#mask-18)"></path>
                                    <path d="M6.23541562,21.7255435 C6.23541562,24.375 7.42363979,29.3162601 10.2961423,31.7934783 C10.1687168,32.7149571 9.38644926,33.4214788 7.94933972,33.9130435 C4.06299586,28.6141304 1.53521014,23.9452068 0.365982564,19.9062726 C0.227144371,17.0975427 0.266498376,15.2876025 0.48404458,14.4764522 L6.23541562,16.4266304 C6.23541562,18.1929348 6.23541562,19.9592391 6.23541562,21.7255435 Z" id="Path-38" fill="url(#linearGradient-19)"></path>
                                </g>
                                <path d="M74.7237934,41.2993451 C73.6638814,44.0652734 72.3156936,48.4997339 76.4682605,58.2737109 C79.2366385,64.7896956 81.1398419,69.2482417 82.1778709,71.6493493 L84.6312825,79.2559498 C85.0259733,80.2140729 85.7728179,80.6931344 86.8718164,80.6931344 C88.5203141,80.6931344 91.6384613,80.3948326 91.2823115,77.682857 C91.0448784,75.8748733 89.1225333,69.575478 85.5152764,58.7846713 L82.4410195,44.6608617 L83.5413715,39.4487957 L76.4682605,38.6820652 C76.0118904,38.5829663 75.4304014,39.4553929 74.7237934,41.2993451 Z" id="Path-45" fill="url(#linearGradient-20)"></path>
                                <path d="M89.5625609,39.2119565 C91.3968644,44.4037877 90.3599618,50.7774846 86.4518531,58.333047 L84.044652,62.7016322 C83.6667182,63.4642383 83.4777513,64.2442439 83.4777513,65.0416487 C83.4777513,66.237756 81.9758124,76.9335109 80.5527602,79.5942551 C79.129708,82.2549993 79.1776587,81.9717769 77.4351931,81.9717769 C75.6927275,81.9717769 72.6039695,81.0998771 72.6039695,79.2866736 C72.6039695,77.4734701 73.8597744,67.5413525 75.3851085,62.2444164 C76.2421623,59.4075523 76.7981065,57.6597574 77.0529412,57.0010316 C77.4351931,56.012943 79.0038375,52.0041373 81.7366391,41.0269 L89.5625609,39.2119565 Z" id="Path-44" fill="url(#linearGradient-21)"></path>
                                <path d="M87.4427369,37.9504651 C86.7774487,43.2475007 86.0708407,47.0239761 85.322913,49.2798913 C84.2010214,52.6637641 82.3720979,56.6983696 80.5533092,62.2945916 C78.7345205,67.8908137 78.1792678,74.0351264 80.8075266,76.3043478" id="Path-3" stroke="#357CE1" stroke-width="0.5625" opacity="0.299641927"></path>
                                <path d="M22.1115494,7.6319297 L22.1115494,11.0845659 C21.9633696,13.1893973 21.0254979,14.4205193 19.2979345,14.7779317 C18.6023792,14.8666953 17.9627139,14.7129719 17.3789387,14.3167615 L17.3789387,16.717516 C17.4368312,17.8095972 16.8273137,18.3847363 15.5503861,18.4429331 C14.31591,18.5385931 13.6642524,17.7962271 13.5954133,16.2158349 L13.5954133,13.7384635 L14.401525,8.95016895 L15.1513685,6.11514034 L18.6104334,5.16910746 C19.5526882,4.90125947 20.0569891,4.76733547 20.1233363,4.76733547 C20.2228571,4.76733547 21.5405898,4.87672157 21.6565972,4.87672157 C21.7339355,4.87672157 22.0983334,5.23749323 22.7497907,5.95903657 L22.1115494,7.6319297 Z" id="Path-35" fill="url(#linearGradient-22)"></path>
                                <path d="M22.0454205,7.68610056 C23.8714179,5.95983802 24.3757935,3.96323837 23.5585474,1.69630161 C22.5586902,0.224785214 21.0814213,0.118913032 19.1267406,1.37868507 C16.8890242,0.515159798 15.1949751,0.621031981 14.0445933,1.69630161 C13.5837441,2.07883806 13.3533195,2.85315487 13.3533195,4.01925205 C11.3152014,3.67231601 10.2961423,4.89459884 10.2961423,7.68610056 C10.2961423,9.57008301 11.4050881,11.8766119 13.6229796,14.6056872 C13.8402826,13.3433553 14.3973978,12.1060062 15.2943254,10.8936396 C15.7250608,10.0387011 15.7250608,9.42052756 15.2943254,9.03911897 C14.9191599,7.65849001 15.3361065,7.16424894 16.5451652,7.55639575 C17.2116576,8.8930454 17.6323711,9.56137023 17.8073055,9.56137023 C17.9822399,9.56137023 18.2088736,8.81873267 18.4872066,7.33345754 C18.9888557,6.16310884 19.8089946,5.57793449 20.9476234,5.57793449 C21.5890956,5.58187366 21.9098317,5.87544563 21.9098317,6.45865039 L21.9098317,7.7861691 L22.0454205,7.68610056 Z" id="Path-33" fill="#042456"></path>
                                <path d="M80.2369002,7.68002994 C78.863203,4.65138061 79.291808,2.9745228 81.522715,2.64945652 C84.8690756,2.1618571 88.450208,3.25187756 89.5625609,7.68002994 C90.6749137,12.1081823 89.5625609,11.7672872 93.2722527,15.6866327 C96.9819446,19.6059783 104.401328,19.6334651 104.931284,26.243363 C105.46124,32.8532609 97.5119006,37.6222826 92.4006154,36.0326087 C88.993092,34.9728261 87.393724,35.7542743 87.6025114,38.3769534 L81.0308882,26.4597389 L83.733657,17.4973469 L83.0903978,12.4336292 L80.2369002,7.68002994 Z" id="Path-37" fill="#42050B"></path>
                                <path d="M84.792957,15.6866327 C87.7928775,15.8371254 90.2660054,17.3116309 92.2123408,20.1101491 C94.1586761,22.9086673 94.8652841,25.9199582 94.3321647,29.1440217 C91.6977641,29.7132072 90.1244192,29.4488671 89.61213,28.3510015 C89.61213,26.8881527 89.61213,25.5644119 89.61213,24.379779 C88.5191719,26.1428974 87.9726929,27.9076087 87.9726929,29.673913 C87.9726929,32.3233696 87.8002771,31.5686988 88.5026489,34.9728261 C89.2050207,38.3769534 90.799198,40.0898378 90.1238346,40.4394769 C89.4484712,40.7891161 79.4933972,42.3913043 75.2537494,40.0067935 C75.4213612,39.2555014 75.6982832,38.3274061 76.0845154,37.2225074 C76.6638637,35.5651594 76.6469112,32.1666177 75.856783,30.4164991 C75.0666548,28.6663805 73.9507543,27.2433331 75.0983074,24.9405653 C74.2469684,25.4697029 73.4547458,26.3986965 72.7216396,27.7275462 L72.5177355,28.0040869 C72.0450417,26.3808768 71.4658514,24.8639921 70.7801648,23.4534327 C73.0559465,19.4754196 75.7837053,17.1097174 78.9634412,16.3563261 C82.1431771,15.6029348 84.0863491,15.3797037 84.792957,15.6866327 Z" id="Path-43" fill="#F04B5B"></path>
                                <path d="M90.0659097,28.4218566 C90.4369518,30.5805603 90.6224728,32.0864879 90.6224728,32.9396393 C90.6224728,34.2193664 90.2305621,39.3005668 89.5625609,43.7160326 C89.1172267,46.6596765 89.2850096,48.3963005 90.0659097,48.9259048 C91.7090393,47.8124543 92.3824103,46.1737904 92.0860226,44.0099131 C91.645536,42.8983597 91.5706762,41.9918386 91.8614431,41.2903498 C92.2975936,40.2381165 95.1427119,29.1372709 94.3321647,28.4218566 C93.7917999,27.9449137 92.3697149,27.9449137 90.0659097,28.4218566 Z" id="Path-46" fill="url(#linearGradient-23)"></path>
                                <path d="M82.2935921,5.70827388 C83.7700006,5.55962099 84.3094886,6.37625253 83.9120561,8.1581685 C83.6846279,9.20305213 83.5366315,9.86328003 83.4680671,10.1388522 C83.3652204,10.5522104 83.3652204,11.1546806 84.3098168,10.486803 C84.9703021,9.53171821 85.6350798,9.41573462 86.3041499,10.1388522 C86.6224241,10.5419924 86.3677795,11.1119884 85.5402161,11.8488401 L84.8190808,12.5045236 L84.9250543,17.4220361 C84.7304791,18.3964598 84.0646662,18.8836717 82.9276155,18.8836717 C81.8353581,18.8557993 81.2268118,18.2277863 81.1019766,16.9996326 L81.2000722,14.275634 L80.2988045,14.275634 C78.6372221,13.5543128 78.015449,12.3131716 78.4334853,10.5522104 C79.0605397,7.91076865 80.5677153,6.27950696 82.0609654,5.70827388 L82.2935921,5.70827388 Z" id="Path-42" fill="url(#linearGradient-24)"></path>
                                <path d="M65.6473318,8.95031598 L68.8304579,8.55247377 C69.1199559,8.51629094 69.3839724,8.72164347 69.4201553,9.01114151 C69.4228715,9.03287412 69.4242336,9.05475463 69.4242336,9.07665633 L69.4242336,15.4303928 C69.4242336,15.69681 69.225848,15.9215343 68.9614875,15.9545753 L65.7783614,16.3524175 C65.4888634,16.3886004 65.2248469,16.1832478 65.188664,15.8937498 C65.1859478,15.8720172 65.1845857,15.8501367 65.1845857,15.828235 L65.1845857,9.47449854 C65.1845857,9.20808126 65.3829713,8.983357 65.6473318,8.95031598 Z" id="Rectangle-37" fill="#1F3F59"></path>
                                <path d="M72.546418,28.0519412 C71.2440409,29.7054992 70.2117037,30.0967329 69.4494064,29.2256423 C68.6871092,28.3545517 67.831921,25.9390818 66.883842,21.9792325 C66.4279691,19.9995085 65.6403288,17.8656879 64.5209211,15.5777705 C63.4015134,13.2898531 63.7837159,11.6160646 65.6675287,10.556405 C66.9046684,10.490471 67.3983299,11.2018449 67.1485132,12.6905267 C66.816796,13.7964504 66.530395,14.4796745 66.2893103,14.7401988 C66.1795074,15.6756176 66.5894116,16.143327 67.5190228,16.143327 L67.95427,16.143327 C68.7242956,17.1577261 69.6737296,19.5917117 70.802572,23.4452839 L73.731523,26.1488334 L72.546418,28.0519412 Z" id="Path-47" fill="url(#linearGradient-25)"></path>
                            </g>
                            <g id="Group-24" transform="translate(76.639535, 81.521739)">
                                <path d="M3.63888354,4.55774898 L6.7861899,0.55427341 C7.09798749,0.185800783 7.65067503,0.00156447001 8.44425254,0.00156447001 C9.23783005,0.00156447001 12.1368373,0.00156447001 17.1412742,0.00156447001 C17.9486904,-0.0235531213 18.6461323,0.253776789 19.2336001,0.833554201 C19.8210679,1.41333161 21.0426629,2.65472987 22.8983851,4.55774898 C25.6637823,4.74771601 27.7287371,5.02022968 29.0932496,5.37529 C29.9374054,5.60988343 30.3594833,6.31207862 30.3594833,7.48187557 L0,7.48187557 L0,6.48198815 C0.111198824,5.560075 1.04040706,5.00889019 2.7876247,4.82843371 C3.24055274,4.78384328 3.50926686,4.71517233 3.59376704,4.62242087 L3.63888354,4.55774898 Z" id="Path-27" fill="url(#linearGradient-26)" fill-rule="nonzero"></path>
                                <g id="Path-29" transform="translate(0.000000, 6.963935)">
                                    <mask id="mask-29" fill="white">
                                        <use xlink:href="#path-28"></use>
                                    </mask>
                                    <use id="Mask" fill="url(#linearGradient-27)" fill-rule="nonzero" xlink:href="#path-28"></use>
                                    <path d="M0.183354662,1.62673364 L3.63668851,1.62673364 L8.72904147,3.20593766 L23.7640587,3.20593766 L28.7144392,1.62673364 L32.2211499,1.62673364 L33.6054566,2.41633565 C33.4248731,3.97183207 33.3345814,4.74958028 33.3345814,4.74958028 C33.3345814,4.74958028 32.6361592,5.1410205 31.2393148,5.92390095 L4.77167033,6.44788517 C1.96155271,5.75493466 0.556493904,5.4084594 0.556493904,5.4084594 C0.556493904,5.4084594 0.241354202,4.87781983 -0.388925203,3.8165407 L-1.13430576,2.41633565 L0.183354662,1.62673364 Z" fill="url(#linearGradient-30)" fill-rule="nonzero" mask="url(#mask-29)"></path>
                                </g>
                                <ellipse id="Oval-18" stroke="#3D4E8E" stroke-width="1.30434783" fill="#A8BCFF" cx="6.04072686" cy="10.4459024" rx="2.22553095" ry="2.21579747"></ellipse>
                                <ellipse id="Oval-18-Copy" stroke="#3D4E8E" stroke-width="1.30434783" fill="#A8BCFF" cx="26.3884384" cy="10.4459024" rx="2.22553095" ry="2.21579747"></ellipse>
                                <path d="M9.03763622,10.3875236 C9.03763622,8.74319758 7.69879107,7.41020794 6.04724188,7.41020794 C4.39569269,7.41020794 3.05684755,8.74319758 3.05684755,10.3875236" id="Oval-9" stroke="#1D2850" stroke-width="0.652173913"></path>
                                <path d="M29.3723177,10.3875236 C29.3723177,8.74319758 28.0334726,7.41020794 26.3819234,7.41020794 C24.7303742,7.41020794 23.391529,8.74319758 23.391529,10.3875236" id="Oval-9-Copy" stroke="#1D2850" stroke-width="0.652173913"></path>
                                <polygon id="Path-28" fill="#3D4E8E" points="12.4717221 0.633084992 7.51781075 0.633084992 5.08692788 4.05986684 12.4717221 4.05986684"></polygon>
                                <polygon id="Path-28-Copy" fill="#3D4E8E" transform="translate(17.045583, 2.346476) scale(-1, 1) translate(-17.045583, -2.346476) " points="20.7379799 0.633084992 16.4199346 0.633084992 13.3531857 4.05986684 20.7379799 4.05986684"></polygon>
                                <path d="M18.8251106,0.460225702 L19.3685079,0.460225702 C19.7220562,0.460225702 20.0604596,0.603745171 20.3062131,0.857913657 L23.9645163,4.64148252 L22.8988398,4.58254956 L18.8251106,0.460225702 Z" id="Path-31" fill="#3D4E8E"></path>
                            </g>
                        </g>
                    </g>
                </g>
            </g>
        </g>
    </g>
</svg>